<svg width="52" height="42" viewBox="0 0 52 42" fill="none" xmlns="http://www.w3.org/2000/svg">
<ellipse rx="2.06357" ry="1.90664" transform="matrix(0.96559 0.26007 -0.309332 0.950954 31.6507 7.56318)" fill="#9C53D5"/>
<path d="M26.1742 7.74596C27.548 7.80311 27.704 7.32366 27.8287 6.94011C27.9535 6.55656 27.947 5.72049 26.9228 5.44465C11.1468 1.50843 5.69511 15.0577 5.73444 16.0069C5.7659 16.7663 6.50745 16.8409 6.50745 16.8409C6.82751 16.9271 7.51289 17.1742 8.06837 16.3227C15.1596 4.15357 24.6842 7.68398 26.1742 7.74596Z" fill="#9C53D5" stroke="#9C53D5" stroke-width="0.3"/>
<ellipse rx="2.0774" ry="1.89156" transform="matrix(-0.998581 -0.0532609 0.0642827 -0.997932 23.2379 38.9269)" fill="#9C53D5"/>
<path d="M28.5256 37.6165C27.1735 37.8449 27.1413 38.344 27.1156 38.7433C27.0899 39.1427 27.305 39.9555 28.3712 40.0124C44.7176 40.5837 46.6432 26.2616 46.3678 25.3454C46.1476 24.6124 45.4068 24.6931 45.4068 24.6931C45.0736 24.6753 44.3444 24.5763 44.0161 25.5205C40.1492 38.8375 29.9921 37.3687 28.5256 37.6165Z" fill="#9C53D5" stroke="#9C53D5" stroke-width="0.3"/>
<ellipse rx="2.07792" ry="1.89097" transform="matrix(0.99571 -0.0925321 0.093519 0.995618 13.4776 14.3644)" fill="#4DD362"/>
<path d="M12.135 18.7354C12.484 17.5189 12.0018 17.2868 11.616 17.1011C11.2303 16.9155 10.3311 16.7595 9.82051 17.6213C2.29151 30.9563 15.7 38.4488 16.7275 38.5973C17.5495 38.7161 17.7848 38.0679 17.7848 38.0679C17.9444 37.7986 18.3533 37.234 17.5551 36.5729C5.9719 27.8824 11.7566 20.0548 12.135 18.7354Z" fill="#4DD362" stroke="#4DD362" stroke-width="0.3"/>
<ellipse rx="2.05987" ry="1.9106" transform="matrix(-0.984796 -0.173717 0.229173 -0.973386 33.2167 33.099)" fill="#4DD362"/>
<path d="M35.8996 29.2414C35.1764 30.3215 35.56 30.6716 35.8669 30.9516C36.1739 31.2317 36.9784 31.6179 37.7411 30.9219C49.1896 20.0541 38.8558 9.31842 37.9269 8.90573C37.1838 8.57558 36.7516 9.13812 36.7516 9.13812C36.5132 9.35563 35.9428 9.79212 36.4887 10.6383C44.7019 22.0488 36.684 28.0698 35.8996 29.2414Z" fill="#4DD362" stroke="#4DD362" stroke-width="0.3"/>
<path d="M17.351 22.5759C17.1822 23.332 17.7722 23.6679 18.0882 23.7413C18.4043 23.8147 19.0787 23.7726 19.2476 23.0166C20.7952 16.0862 27.1171 17.5549 27.8196 17.3868C28.3816 17.2523 28.6159 16.7986 28.6628 16.5886C28.7097 16.3786 28.8739 15.6435 27.9256 15.4232C18.5479 14.2386 17.562 21.6309 17.351 22.5759Z" fill="#4DD362" stroke="#4DD362" stroke-width="0.3"/>
<path d="M33.7705 22.4143C33.9393 21.6582 33.3267 21.3171 32.9994 21.241C32.672 21.165 31.975 21.2019 31.8062 21.9579C30.2585 28.8883 23.7109 27.3671 22.9858 27.53C22.4057 27.6603 22.1669 28.1129 22.12 28.3229C22.0731 28.5329 21.9089 29.268 22.8911 29.4962C32.5962 30.7568 33.5594 23.3593 33.7705 22.4143Z" fill="#9C53D5" stroke="#9C53D5" stroke-width="0.3"/>
<ellipse rx="2.90498" ry="2.78425" transform="matrix(0.841173 -0.540767 0.53354 0.845775 25.7559 22.2069)" fill="url(#paint0_linear_62_590)"/>
<defs>
<linearGradient id="paint0_linear_62_590" x1="4.23352" y1="1.6468" x2="2.60149" y2="4.56301" gradientUnits="userSpaceOnUse">
<stop stop-color="#9C53D5"/>
<stop offset="1" stop-color="#4DD362"/>
</linearGradient>
</defs>
</svg>
