<svg width="63" height="64" viewBox="0 0 63 64" fill="none" xmlns="http://www.w3.org/2000/svg">
<path d="M49.6667 5.33333H47V2.66667C47 1.19467 45.808 0 44.3333 0C42.8587 0 41.6667 1.19467 41.6667 2.66667V5.33333H20.3333V2.66667C20.3333 1.19467 19.1413 0 17.6667 0C16.192 0 15 1.19467 15 2.66667V5.33333H12.3333C4.98133 5.33333 -1 11.3147 -1 18.6667V50.6667C-1 58.0187 4.98133 64 12.3333 64H23C24.4747 64 25.6667 62.8053 25.6667 61.3333C25.6667 59.8613 24.4747 58.6667 23 58.6667H12.3333C7.92267 58.6667 4.33333 55.0773 4.33333 50.6667V26.6667H60.3333C61.808 26.6667 63 25.472 63 24V18.6667C63 11.3147 57.0187 5.33333 49.6667 5.33333ZM57.6667 21.3333H4.33333V18.6667C4.33333 14.256 7.92267 10.6667 12.3333 10.6667H49.6667C54.0773 10.6667 57.6667 14.256 57.6667 18.6667V21.3333ZM49.344 34.344L34.1253 49.5627C32.1093 51.576 31 54.256 31 57.104V61.3333C31 62.8053 32.192 64 33.6667 64H37.896C40.744 64 43.424 62.888 45.4373 60.8747L60.656 45.656C62.1653 44.144 63 42.136 63 39.9973C63 37.8587 62.1653 35.8507 60.656 34.3413C57.536 31.2213 52.464 31.2213 49.344 34.3413V34.344ZM56.8853 41.8853L41.6667 57.104C40.6587 58.112 39.32 58.6667 37.896 58.6667H36.3333V57.104C36.3333 55.7013 36.904 54.3253 37.896 53.3333L53.1147 38.1147C54.1573 37.0747 55.8427 37.0747 56.8853 38.1147C57.3893 38.616 57.6667 39.2853 57.6667 40C57.6667 40.7147 57.3893 41.3813 56.8853 41.8853V41.8853Z" fill="#4DD362"/>
</svg>
