<svg width="59" height="64" viewBox="0 0 59 64" fill="none" xmlns="http://www.w3.org/2000/svg">
<path d="M37.6667 16C38.3739 16 39.0522 16.281 39.5523 16.781C40.0524 17.2811 40.3333 17.9594 40.3333 18.6667C40.3333 19.3739 40.0524 20.0522 39.5523 20.5523C39.0522 21.0524 38.3739 21.3333 37.6667 21.3333H16.3333C15.6261 21.3333 14.9478 21.0524 14.4477 20.5523C13.9476 20.0522 13.6667 19.3739 13.6667 18.6667C13.6667 17.9594 13.9476 17.2811 14.4477 16.781C14.9478 16.281 15.6261 16 16.3333 16H37.6667ZM58.2187 63.2187C57.7186 63.7186 57.0404 63.9994 56.3333 63.9994C55.6262 63.9994 54.9481 63.7186 54.448 63.2187L48.0293 56.8C46.1285 58.0132 43.9217 58.6606 41.6667 58.6667C39.2933 58.6667 36.9732 57.9629 34.9998 56.6443C33.0264 55.3257 31.4884 53.4516 30.5801 51.2589C29.6719 49.0662 29.4342 46.6534 29.8973 44.3256C30.3603 41.9978 31.5032 39.8596 33.1814 38.1814C34.8596 36.5032 36.9978 35.3603 39.3256 34.8972C41.6534 34.4342 44.0662 34.6719 46.2589 35.5801C48.4516 36.4884 50.3257 38.0264 51.6443 39.9998C52.9629 41.9732 53.6667 44.2933 53.6667 46.6667C53.6607 48.9217 53.0132 51.1285 51.8 53.0293L58.2187 59.448C58.7186 59.9481 58.9994 60.6262 58.9994 61.3333C58.9994 62.0404 58.7186 62.7186 58.2187 63.2187ZM41.6667 53.3333C42.9852 53.3333 44.2742 52.9423 45.3705 52.2098C46.4668 51.4773 47.3213 50.4361 47.8259 49.2179C48.3305 47.9997 48.4625 46.6593 48.2052 45.3661C47.948 44.0729 47.3131 42.885 46.3807 41.9526C45.4484 41.0203 44.2605 40.3853 42.9673 40.1281C41.6741 39.8709 40.3336 40.0029 39.1155 40.5075C37.8973 41.0121 36.8561 41.8665 36.1235 42.9629C35.391 44.0592 35 45.3481 35 46.6667C35 48.4348 35.7024 50.1305 36.9526 51.3807C38.2029 52.631 39.8986 53.3333 41.6667 53.3333ZM29.6667 58.6667H13.6667C11.5449 58.6667 9.51011 57.8238 8.00982 56.3235C6.50953 54.8232 5.66668 52.7884 5.66668 50.6667V13.3333C5.66668 11.2116 6.50953 9.17677 8.00982 7.67648C9.51011 6.17619 11.5449 5.33333 13.6667 5.33333H45.6667C46.3739 5.33333 47.0522 5.61428 47.5523 6.11438C48.0524 6.61448 48.3333 7.29276 48.3333 8V29.3333C48.3333 30.0406 48.6143 30.7189 49.1144 31.219C49.6145 31.719 50.2928 32 51 32C51.7073 32 52.3855 31.719 52.8856 31.219C53.3857 30.7189 53.6667 30.0406 53.6667 29.3333V8C53.6667 5.87827 52.8238 3.84344 51.3235 2.34315C49.8232 0.842855 47.7884 0 45.6667 0L13.6667 0C10.1318 0.00423429 6.74283 1.41035 4.24326 3.90992C1.7437 6.40949 0.337578 9.79841 0.333344 13.3333V50.6667C0.337578 54.2016 1.7437 57.5905 4.24326 60.0901C6.74283 62.5897 10.1318 63.9958 13.6667 64H29.6667C30.3739 64 31.0522 63.7191 31.5523 63.219C32.0524 62.7189 32.3333 62.0406 32.3333 61.3333C32.3333 60.6261 32.0524 59.9478 31.5523 59.4477C31.0522 58.9476 30.3739 58.6667 29.6667 58.6667Z" fill="#4DD362"/>
</svg>
