<svg width="15" height="15" viewBox="0 0 15 15" fill="none" xmlns="http://www.w3.org/2000/svg">
<path d="M14.8292 14.0044L11.3473 10.5225C12.2961 9.36196 12.7627 7.88117 12.6504 6.38636C12.538 4.89155 11.8555 3.49709 10.7439 2.49142C9.63226 1.48575 8.17663 0.945804 6.67807 0.983273C5.17952 1.02074 3.75269 1.63276 2.69272 2.69272C1.63276 3.75269 1.02074 5.17952 0.983273 6.67807C0.945804 8.17663 1.48575 9.63226 2.49142 10.7439C3.49709 11.8555 4.89155 12.538 6.38636 12.6504C7.88117 12.7627 9.36196 12.2961 10.5225 11.3473L14.0044 14.8292C14.1144 14.9355 14.2617 14.9943 14.4147 14.9929C14.5676 14.9916 14.7139 14.9303 14.8221 14.8221C14.9303 14.7139 14.9916 14.5676 14.9929 14.4147C14.9943 14.2617 14.9355 14.1144 14.8292 14.0044ZM6.83345 11.5001C5.91047 11.5001 5.00822 11.2264 4.24079 10.7136C3.47336 10.2009 2.87522 9.47203 2.52201 8.61931C2.1688 7.76658 2.07639 6.82827 2.25645 5.92303C2.43652 5.01778 2.88097 4.18626 3.53362 3.53362C4.18626 2.88097 5.01778 2.43652 5.92303 2.25645C6.82827 2.07639 7.76658 2.1688 8.61931 2.52201C9.47203 2.87522 10.2009 3.47336 10.7136 4.24079C11.2264 5.00822 11.5001 5.91047 11.5001 6.83345C11.4987 8.0707 11.0066 9.25688 10.1317 10.1317C9.25688 11.0066 8.0707 11.4987 6.83345 11.5001Z" fill="black"/>
</svg>
