<svg width="32" height="32" viewBox="0 0 32 32" fill="none" xmlns="http://www.w3.org/2000/svg">
<g clip-path="url(#clip0_42_478)">
<path d="M9.33333 0H5.33333C3.91885 0 2.56229 0.561903 1.5621 1.5621C0.561903 2.56229 0 3.91885 0 5.33333L0 9.33333C0 10.7478 0.561903 12.1044 1.5621 13.1046C2.56229 14.1048 3.91885 14.6667 5.33333 14.6667H9.33333C10.7478 14.6667 12.1044 14.1048 13.1046 13.1046C14.1048 12.1044 14.6667 10.7478 14.6667 9.33333V5.33333C14.6667 3.91885 14.1048 2.56229 13.1046 1.5621C12.1044 0.561903 10.7478 0 9.33333 0V0ZM12 9.33333C12 10.0406 11.719 10.7189 11.219 11.219C10.7189 11.719 10.0406 12 9.33333 12H5.33333C4.62609 12 3.94781 11.719 3.44772 11.219C2.94762 10.7189 2.66667 10.0406 2.66667 9.33333V5.33333C2.66667 4.62609 2.94762 3.94781 3.44772 3.44772C3.94781 2.94762 4.62609 2.66667 5.33333 2.66667H9.33333C10.0406 2.66667 10.7189 2.94762 11.219 3.44772C11.719 3.94781 12 4.62609 12 5.33333V9.33333Z" fill="white"/>
<path d="M26.6666 -7.62939e-06H22.6666C21.2521 -7.62939e-06 19.8955 0.561896 18.8953 1.56209C17.8952 2.56228 17.3333 3.91884 17.3333 5.33333V9.33333C17.3333 10.7478 17.8952 12.1044 18.8953 13.1046C19.8955 14.1048 21.2521 14.6667 22.6666 14.6667H26.6666C28.0811 14.6667 29.4376 14.1048 30.4378 13.1046C31.438 12.1044 31.9999 10.7478 31.9999 9.33333V5.33333C31.9999 3.91884 31.438 2.56228 30.4378 1.56209C29.4376 0.561896 28.0811 -7.62939e-06 26.6666 -7.62939e-06V-7.62939e-06ZM29.3333 9.33333C29.3333 10.0406 29.0523 10.7188 28.5522 11.2189C28.0521 11.719 27.3738 12 26.6666 12H22.6666C21.9593 12 21.2811 11.719 20.781 11.2189C20.2809 10.7188 19.9999 10.0406 19.9999 9.33333V5.33333C19.9999 4.62608 20.2809 3.9478 20.781 3.44771C21.2811 2.94761 21.9593 2.66666 22.6666 2.66666H26.6666C27.3738 2.66666 28.0521 2.94761 28.5522 3.44771C29.0523 3.9478 29.3333 4.62608 29.3333 5.33333V9.33333Z" fill="white"/>
<path d="M9.33333 17.3333H5.33333C3.91885 17.3333 2.56229 17.8952 1.5621 18.8954C0.561903 19.8956 0 21.2522 0 22.6667L0 26.6667C0 28.0812 0.561903 29.4377 1.5621 30.4379C2.56229 31.4381 3.91885 32 5.33333 32H9.33333C10.7478 32 12.1044 31.4381 13.1046 30.4379C14.1048 29.4377 14.6667 28.0812 14.6667 26.6667V22.6667C14.6667 21.2522 14.1048 19.8956 13.1046 18.8954C12.1044 17.8952 10.7478 17.3333 9.33333 17.3333ZM12 26.6667C12 27.3739 11.719 28.0522 11.219 28.5523C10.7189 29.0524 10.0406 29.3333 9.33333 29.3333H5.33333C4.62609 29.3333 3.94781 29.0524 3.44772 28.5523C2.94762 28.0522 2.66667 27.3739 2.66667 26.6667V22.6667C2.66667 21.9594 2.94762 21.2811 3.44772 20.7811C3.94781 20.281 4.62609 20 5.33333 20H9.33333C10.0406 20 10.7189 20.281 11.219 20.7811C11.719 21.2811 12 21.9594 12 22.6667V26.6667Z" fill="white"/>
<path d="M26.6666 17.3333H22.6666C21.2521 17.3333 19.8955 17.8952 18.8953 18.8954C17.8952 19.8956 17.3333 21.2522 17.3333 22.6667V26.6667C17.3333 28.0812 17.8952 29.4377 18.8953 30.4379C19.8955 31.4381 21.2521 32 22.6666 32H26.6666C28.0811 32 29.4376 31.4381 30.4378 30.4379C31.438 29.4377 31.9999 28.0812 31.9999 26.6667V22.6667C31.9999 21.2522 31.438 19.8956 30.4378 18.8954C29.4376 17.8952 28.0811 17.3333 26.6666 17.3333ZM29.3333 26.6667C29.3333 27.3739 29.0523 28.0522 28.5522 28.5523C28.0521 29.0524 27.3738 29.3333 26.6666 29.3333H22.6666C21.9593 29.3333 21.2811 29.0524 20.781 28.5523C20.2809 28.0522 19.9999 27.3739 19.9999 26.6667V22.6667C19.9999 21.9594 20.2809 21.2811 20.781 20.7811C21.2811 20.281 21.9593 20 22.6666 20H26.6666C27.3738 20 28.0521 20.281 28.5522 20.7811C29.0523 21.2811 29.3333 21.9594 29.3333 22.6667V26.6667Z" fill="white"/>
</g>
<defs>
<clipPath id="clip0_42_478">
<rect width="32" height="32" fill="white"/>
</clipPath>
</defs>
</svg>
