<svg width="32" height="32" viewBox="0 0 32 32" fill="none" xmlns="http://www.w3.org/2000/svg">
<g clip-path="url(#clip0_42_483)">
<path d="M25.208 1.1802L8.95203 17.4362C8.33115 18.0537 7.83893 18.7883 7.50387 19.5973C7.16881 20.4064 6.99755 21.2739 7.00003 22.1495V23.9402C7.00003 24.2938 7.1405 24.633 7.39055 24.883C7.6406 25.1331 7.97974 25.2735 8.33336 25.2735H10.124C10.9997 25.276 11.8672 25.1048 12.6762 24.7697C13.4853 24.4346 14.2198 23.9424 14.8374 23.3215L31.0934 7.06553C31.8726 6.28443 32.3101 5.22617 32.3101 4.12287C32.3101 3.01957 31.8726 1.96131 31.0934 1.1802C30.3009 0.422725 29.2469 0 28.1507 0C27.0545 0 26.0005 0.422725 25.208 1.1802ZM29.208 5.1802L12.952 21.4362C12.2002 22.1834 11.184 22.6041 10.124 22.6069H9.66669V22.1495C9.66947 21.0895 10.0901 20.0734 10.8374 19.3215L27.0934 3.06553C27.3781 2.79347 27.7568 2.64166 28.1507 2.64166C28.5445 2.64166 28.9232 2.79347 29.208 3.06553C29.4879 3.34622 29.6451 3.72646 29.6451 4.12287C29.6451 4.51928 29.4879 4.89951 29.208 5.1802Z" fill="white"/>
<path d="M30.6667 11.972C30.313 11.972 29.9739 12.1125 29.7239 12.3625C29.4738 12.6126 29.3333 12.9517 29.3333 13.3053V20H24C22.9391 20 21.9217 20.4214 21.1716 21.1716C20.4214 21.9217 20 22.9391 20 24V29.3333H6.66667C5.6058 29.3333 4.58839 28.9119 3.83824 28.1618C3.08809 27.4116 2.66667 26.3942 2.66667 25.3333V6.66667C2.66667 5.6058 3.08809 4.58839 3.83824 3.83824C4.58839 3.08809 5.6058 2.66667 6.66667 2.66667H18.7227C19.0763 2.66667 19.4154 2.52619 19.6655 2.27614C19.9155 2.02609 20.056 1.68696 20.056 1.33333C20.056 0.979711 19.9155 0.640573 19.6655 0.390524C19.4154 0.140476 19.0763 0 18.7227 0L6.66667 0C4.89921 0.00211714 3.20474 0.705176 1.95496 1.95496C0.705176 3.20474 0.00211714 4.89921 0 6.66667L0 25.3333C0.00211714 27.1008 0.705176 28.7953 1.95496 30.045C3.20474 31.2948 4.89921 31.9979 6.66667 32H21.7907C22.6666 32.0025 23.5342 31.8313 24.3435 31.4962C25.1528 31.1612 25.8876 30.6689 26.5053 30.048L30.0467 26.504C30.6677 25.8865 31.1601 25.152 31.4953 24.3429C31.8306 23.5339 32.0022 22.6664 32 21.7907V13.3053C32 12.9517 31.8595 12.6126 31.6095 12.3625C31.3594 12.1125 31.0203 11.972 30.6667 11.972ZM24.62 28.1627C24.084 28.6973 23.4062 29.0675 22.6667 29.2293V24C22.6667 23.6464 22.8071 23.3072 23.0572 23.0572C23.3072 22.8071 23.6464 22.6667 24 22.6667H29.2333C29.0684 23.4047 28.6987 24.0812 28.1667 24.6187L24.62 28.1627Z" fill="white"/>
</g>
<defs>
<clipPath id="clip0_42_483">
<rect width="32" height="32" fill="white"/>
</clipPath>
</defs>
</svg>
